<mxfile host="Electron" modified="2024-10-04T00:15:49.733Z" agent="Mozilla/5.0 (X11; Linux x86_64) AppleWebKit/537.36 (KHTML, like Gecko) draw.io/21.6.5 Chrome/114.0.5735.243 Electron/25.3.1 Safari/537.36" etag="UNf2FqBFnZju4GaHR8IR" version="21.6.5" type="device">
  <diagram name="Page-1" id="XQpnbHps4Ra_ysarjgnG">
    <mxGraphModel dx="1364" dy="2843" grid="1" gridSize="10" guides="1" tooltips="1" connect="1" arrows="1" fold="1" page="1" pageScale="1" pageWidth="1060" pageHeight="2000" math="0" shadow="0">
      <root>
        <mxCell id="0" />
        <mxCell id="1" parent="0" />
        <mxCell id="9k4V9jYYkEPxiwSoa5Fr-15" value="" style="rounded=1;whiteSpace=wrap;html=1;opacity=50;arcSize=13;" parent="1" vertex="1">
          <mxGeometry x="50" y="-1940" width="380" height="180" as="geometry" />
        </mxCell>
        <mxCell id="9k4V9jYYkEPxiwSoa5Fr-16" style="edgeStyle=orthogonalEdgeStyle;rounded=0;orthogonalLoop=1;jettySize=auto;html=1;exitX=1;exitY=0.5;exitDx=0;exitDy=0;fillColor=#ffe6cc;strokeColor=#82B366;strokeWidth=3;" parent="1" edge="1">
          <mxGeometry relative="1" as="geometry">
            <mxPoint x="600" y="-1740" as="targetPoint" />
            <mxPoint x="370" y="-1870" as="sourcePoint" />
          </mxGeometry>
        </mxCell>
        <mxCell id="9k4V9jYYkEPxiwSoa5Fr-17" value="" style="rounded=0;whiteSpace=wrap;html=1;fillColor=#d5e8d4;strokeColor=#82b366;" parent="1" vertex="1">
          <mxGeometry x="360" y="-1890" width="40" height="40" as="geometry" />
        </mxCell>
        <mxCell id="9k4V9jYYkEPxiwSoa5Fr-18" value="USDC" style="text;html=1;strokeColor=none;fillColor=none;align=right;verticalAlign=middle;whiteSpace=wrap;rounded=0;fontSize=14;" parent="1" vertex="1">
          <mxGeometry x="60" y="-1890" width="50" height="40" as="geometry" />
        </mxCell>
        <mxCell id="9k4V9jYYkEPxiwSoa5Fr-19" value="" style="rounded=0;whiteSpace=wrap;html=1;fillColor=#ffe6cc;strokeColor=#d79b00;" parent="1" vertex="1">
          <mxGeometry x="120" y="-1890" width="240" height="40" as="geometry" />
        </mxCell>
        <mxCell id="9k4V9jYYkEPxiwSoa5Fr-20" style="edgeStyle=orthogonalEdgeStyle;rounded=0;orthogonalLoop=1;jettySize=auto;html=1;exitX=1;exitY=0.5;exitDx=0;exitDy=0;fillColor=#ffe6cc;strokeColor=#82B366;strokeWidth=3;" parent="1" source="9k4V9jYYkEPxiwSoa5Fr-21" edge="1">
          <mxGeometry relative="1" as="geometry">
            <mxPoint x="570" y="-1740" as="targetPoint" />
          </mxGeometry>
        </mxCell>
        <mxCell id="9k4V9jYYkEPxiwSoa5Fr-21" value="" style="rounded=0;whiteSpace=wrap;html=1;fillColor=#d5e8d4;strokeColor=#82b366;" parent="1" vertex="1">
          <mxGeometry x="340" y="-1830" width="30" height="40" as="geometry" />
        </mxCell>
        <mxCell id="9k4V9jYYkEPxiwSoa5Fr-22" value="" style="rounded=0;whiteSpace=wrap;html=1;fillColor=#ffe6cc;strokeColor=#d79b00;" parent="1" vertex="1">
          <mxGeometry x="120" y="-1830" width="220" height="40" as="geometry" />
        </mxCell>
        <mxCell id="9k4V9jYYkEPxiwSoa5Fr-23" value="DAI" style="text;html=1;strokeColor=none;fillColor=none;align=right;verticalAlign=middle;whiteSpace=wrap;rounded=0;fontSize=14;" parent="1" vertex="1">
          <mxGeometry x="60" y="-1830" width="50" height="40" as="geometry" />
        </mxCell>
        <mxCell id="9k4V9jYYkEPxiwSoa5Fr-24" value="" style="rounded=1;whiteSpace=wrap;html=1;arcSize=21;textOpacity=50;opacity=50;" parent="1" vertex="1">
          <mxGeometry x="50" y="-1740" width="380" height="120" as="geometry" />
        </mxCell>
        <mxCell id="9k4V9jYYkEPxiwSoa5Fr-25" style="edgeStyle=orthogonalEdgeStyle;rounded=0;orthogonalLoop=1;jettySize=auto;html=1;exitX=1;exitY=0.5;exitDx=0;exitDy=0;fillColor=#ffe6cc;strokeColor=#82B366;strokeWidth=3;" parent="1" source="9k4V9jYYkEPxiwSoa5Fr-26" edge="1">
          <mxGeometry relative="1" as="geometry">
            <mxPoint x="500" y="-1670" as="targetPoint" />
          </mxGeometry>
        </mxCell>
        <mxCell id="9k4V9jYYkEPxiwSoa5Fr-26" value="" style="rounded=0;whiteSpace=wrap;html=1;fillColor=#d5e8d4;strokeColor=#82b366;" parent="1" vertex="1">
          <mxGeometry x="370" y="-1690" width="30" height="40" as="geometry" />
        </mxCell>
        <mxCell id="9k4V9jYYkEPxiwSoa5Fr-27" value="LP Tokens" style="text;html=1;strokeColor=none;fillColor=none;align=right;verticalAlign=middle;whiteSpace=wrap;rounded=0;fontSize=14;" parent="1" vertex="1">
          <mxGeometry x="60" y="-1690" width="50" height="40" as="geometry" />
        </mxCell>
        <mxCell id="9k4V9jYYkEPxiwSoa5Fr-28" value="" style="rounded=0;whiteSpace=wrap;html=1;fillColor=#ffe6cc;strokeColor=#d79b00;" parent="1" vertex="1">
          <mxGeometry x="120" y="-1690" width="250" height="40" as="geometry" />
        </mxCell>
        <mxCell id="9k4V9jYYkEPxiwSoa5Fr-29" value="" style="rounded=1;whiteSpace=wrap;html=1;arcSize=18;opacity=50;" parent="1" vertex="1">
          <mxGeometry x="50" y="-1480" width="380" height="140" as="geometry" />
        </mxCell>
        <mxCell id="9k4V9jYYkEPxiwSoa5Fr-58" style="edgeStyle=orthogonalEdgeStyle;rounded=0;orthogonalLoop=1;jettySize=auto;html=1;exitX=1;exitY=0.5;exitDx=0;exitDy=0;fillColor=#ffe6cc;strokeColor=#82B366;strokeWidth=3;" parent="1" source="9k4V9jYYkEPxiwSoa5Fr-31" target="qMNpVWF10UMDHr1Fh4Jr-8" edge="1">
          <mxGeometry relative="1" as="geometry">
            <mxPoint x="490" y="-1390" as="targetPoint" />
            <Array as="points">
              <mxPoint x="450" y="-1390" />
              <mxPoint x="450" y="-1440" />
            </Array>
          </mxGeometry>
        </mxCell>
        <mxCell id="9k4V9jYYkEPxiwSoa5Fr-31" value="" style="rounded=0;whiteSpace=wrap;html=1;fillColor=#d5e8d4;strokeColor=#82b366;" parent="1" vertex="1">
          <mxGeometry x="360" y="-1410" width="50" height="40" as="geometry" />
        </mxCell>
        <mxCell id="9k4V9jYYkEPxiwSoa5Fr-32" value="ETH crvUSD Minting Market" style="text;html=1;strokeColor=none;fillColor=none;align=center;verticalAlign=middle;whiteSpace=wrap;rounded=0;fontSize=15;fontStyle=1" parent="1" vertex="1">
          <mxGeometry x="60" y="-1480" width="370" height="50" as="geometry" />
        </mxCell>
        <mxCell id="9k4V9jYYkEPxiwSoa5Fr-33" value="" style="rounded=0;whiteSpace=wrap;html=1;fillColor=#ffe6cc;strokeColor=#d79b00;" parent="1" vertex="1">
          <mxGeometry x="120" y="-1410" width="240" height="40" as="geometry" />
        </mxCell>
        <mxCell id="9k4V9jYYkEPxiwSoa5Fr-34" value="crvUSD" style="text;html=1;strokeColor=none;fillColor=none;align=right;verticalAlign=middle;whiteSpace=wrap;rounded=0;fontSize=14;" parent="1" vertex="1">
          <mxGeometry x="60" y="-1410" width="50" height="40" as="geometry" />
        </mxCell>
        <mxCell id="9k4V9jYYkEPxiwSoa5Fr-35" value="USDC / WETH Cryptoswap Pool" style="text;html=1;strokeColor=none;fillColor=none;align=center;verticalAlign=middle;whiteSpace=wrap;rounded=0;fontSize=15;fontStyle=1" parent="1" vertex="1">
          <mxGeometry x="60" y="-1740" width="370" height="50" as="geometry" />
        </mxCell>
        <mxCell id="9k4V9jYYkEPxiwSoa5Fr-36" value="USDC / DAI Stableswap Pool" style="text;html=1;strokeColor=none;fillColor=none;align=center;verticalAlign=middle;whiteSpace=wrap;rounded=0;fontSize=15;fontStyle=1" parent="1" vertex="1">
          <mxGeometry x="60" y="-1940" width="370" height="50" as="geometry" />
        </mxCell>
        <mxCell id="9k4V9jYYkEPxiwSoa5Fr-37" value="Debt" style="text;html=1;strokeColor=none;fillColor=none;align=center;verticalAlign=middle;whiteSpace=wrap;rounded=0;" parent="1" vertex="1">
          <mxGeometry x="60" y="-1440" width="370" height="30" as="geometry" />
        </mxCell>
        <mxCell id="9k4V9jYYkEPxiwSoa5Fr-47" value="" style="rounded=1;whiteSpace=wrap;html=1;fillColor=#ffe6cc;strokeColor=#d79b00;" parent="1" vertex="1">
          <mxGeometry x="630" y="-1905" width="20" height="20" as="geometry" />
        </mxCell>
        <mxCell id="9k4V9jYYkEPxiwSoa5Fr-48" value="" style="rounded=1;whiteSpace=wrap;html=1;fillColor=#d5e8d4;strokeColor=#82b366;" parent="1" vertex="1">
          <mxGeometry x="630" y="-1935" width="20" height="20" as="geometry" />
        </mxCell>
        <mxCell id="9k4V9jYYkEPxiwSoa5Fr-49" value="User Assets" style="text;html=1;strokeColor=none;fillColor=none;align=left;verticalAlign=middle;whiteSpace=wrap;rounded=0;" parent="1" vertex="1">
          <mxGeometry x="660" y="-1910" width="80" height="30" as="geometry" />
        </mxCell>
        <mxCell id="9k4V9jYYkEPxiwSoa5Fr-50" value="Admin Fees" style="text;html=1;strokeColor=none;fillColor=none;align=left;verticalAlign=middle;whiteSpace=wrap;rounded=0;" parent="1" vertex="1">
          <mxGeometry x="660" y="-1940" width="80" height="30" as="geometry" />
        </mxCell>
        <mxCell id="9k4V9jYYkEPxiwSoa5Fr-57" value="" style="rounded=1;whiteSpace=wrap;html=1;opacity=80;" parent="1" vertex="1">
          <mxGeometry x="500" y="-1740" width="240" height="170" as="geometry" />
        </mxCell>
        <mxCell id="9k4V9jYYkEPxiwSoa5Fr-59" value="" style="rounded=1;whiteSpace=wrap;html=1;arcSize=18;fillColor=#d5e8d4;strokeColor=#82B366;" parent="1" vertex="1">
          <mxGeometry x="160" y="-1600" width="270" height="80" as="geometry" />
        </mxCell>
        <mxCell id="9k4V9jYYkEPxiwSoa5Fr-71" style="edgeStyle=orthogonalEdgeStyle;rounded=0;orthogonalLoop=1;jettySize=auto;html=1;exitX=1;exitY=0.5;exitDx=0;exitDy=0;fillColor=#ffe6cc;strokeColor=#82B366;strokeWidth=3;entryX=0;entryY=0.75;entryDx=0;entryDy=0;" parent="1" source="9k4V9jYYkEPxiwSoa5Fr-61" target="9k4V9jYYkEPxiwSoa5Fr-57" edge="1">
          <mxGeometry relative="1" as="geometry">
            <mxPoint x="560" y="-1560" as="targetPoint" />
          </mxGeometry>
        </mxCell>
        <mxCell id="9k4V9jYYkEPxiwSoa5Fr-61" value="All Other Admin Fees from Pools" style="text;html=1;strokeColor=none;fillColor=none;align=center;verticalAlign=middle;whiteSpace=wrap;rounded=0;fontSize=15;fontStyle=1;" parent="1" vertex="1">
          <mxGeometry x="160" y="-1585" width="270" height="50" as="geometry" />
        </mxCell>
        <mxCell id="9k4V9jYYkEPxiwSoa5Fr-72" value="Fee Collection" style="text;html=1;strokeColor=none;fillColor=none;align=left;verticalAlign=middle;whiteSpace=wrap;rounded=0;fontSize=17;fontStyle=1" parent="1" vertex="1">
          <mxGeometry x="520" y="-1740" width="200" height="40" as="geometry" />
        </mxCell>
        <mxCell id="9k4V9jYYkEPxiwSoa5Fr-73" value="&lt;font style=&quot;font-size: 14px; font-weight: normal;&quot;&gt;Coins held after collecting:&lt;br&gt;&lt;ul&gt;&lt;li&gt;&lt;font style=&quot;font-size: 14px; font-weight: normal;&quot;&gt;USDC&lt;/font&gt;&lt;/li&gt;&lt;li&gt;&lt;font style=&quot;font-size: 14px; font-weight: normal;&quot;&gt;DAI&lt;/font&gt;&lt;/li&gt;&lt;li&gt;&lt;font style=&quot;font-size: 14px; font-weight: normal;&quot;&gt;USDC / WETH LP Tokens&lt;/font&gt;&lt;/li&gt;&lt;li&gt;&lt;font style=&quot;font-size: 14px; font-weight: normal;&quot;&gt;crvUSD&lt;/font&gt;&lt;/li&gt;&lt;li&gt;...&lt;/li&gt;&lt;/ul&gt;&lt;/font&gt;" style="text;html=1;strokeColor=none;fillColor=none;align=left;verticalAlign=top;whiteSpace=wrap;rounded=0;fontSize=15;fontStyle=1" parent="1" vertex="1">
          <mxGeometry x="520" y="-1710" width="210" height="130" as="geometry" />
        </mxCell>
        <mxCell id="qMNpVWF10UMDHr1Fh4Jr-1" value="" style="rounded=1;whiteSpace=wrap;html=1;arcSize=18;fillColor=#d5e8d4;strokeColor=#82b366;" parent="1" vertex="1">
          <mxGeometry x="160" y="-1320" width="270" height="80" as="geometry" />
        </mxCell>
        <mxCell id="qMNpVWF10UMDHr1Fh4Jr-15" style="edgeStyle=orthogonalEdgeStyle;rounded=0;orthogonalLoop=1;jettySize=auto;html=1;exitX=1;exitY=0.5;exitDx=0;exitDy=0;entryX=0;entryY=0.75;entryDx=0;entryDy=0;strokeColor=#82B366;fillColor=#ffe6cc;strokeWidth=3;" parent="1" source="qMNpVWF10UMDHr1Fh4Jr-2" target="qMNpVWF10UMDHr1Fh4Jr-8" edge="1">
          <mxGeometry relative="1" as="geometry">
            <Array as="points">
              <mxPoint x="470" y="-1280" />
              <mxPoint x="470" y="-1405" />
            </Array>
          </mxGeometry>
        </mxCell>
        <mxCell id="qMNpVWF10UMDHr1Fh4Jr-2" value="All Other crvUSD Minting Market Admin Fees" style="text;html=1;strokeColor=none;fillColor=none;align=center;verticalAlign=middle;whiteSpace=wrap;rounded=0;fontSize=15;fontStyle=1;" parent="1" vertex="1">
          <mxGeometry x="160" y="-1305" width="270" height="50" as="geometry" />
        </mxCell>
        <mxCell id="qMNpVWF10UMDHr1Fh4Jr-8" value="" style="rounded=1;whiteSpace=wrap;html=1;opacity=80;arcSize=18;" parent="1" vertex="1">
          <mxGeometry x="500" y="-1480" width="240" height="100" as="geometry" />
        </mxCell>
        <mxCell id="qMNpVWF10UMDHr1Fh4Jr-12" style="edgeStyle=orthogonalEdgeStyle;rounded=0;orthogonalLoop=1;jettySize=auto;html=1;entryX=0.436;entryY=1.012;entryDx=0;entryDy=0;entryPerimeter=0;strokeColor=#82B366;fillColor=#ffe6cc;strokeWidth=3;" parent="1" source="qMNpVWF10UMDHr1Fh4Jr-9" target="9k4V9jYYkEPxiwSoa5Fr-57" edge="1">
          <mxGeometry relative="1" as="geometry" />
        </mxCell>
        <mxCell id="qMNpVWF10UMDHr1Fh4Jr-9" value="Fee Splitter" style="text;html=1;strokeColor=none;fillColor=none;align=left;verticalAlign=middle;whiteSpace=wrap;rounded=0;fontSize=17;fontStyle=1" parent="1" vertex="1">
          <mxGeometry x="520" y="-1480" width="170" height="40" as="geometry" />
        </mxCell>
        <mxCell id="qMNpVWF10UMDHr1Fh4Jr-10" value="&lt;span style=&quot;font-size: 14px; font-weight: 400;&quot;&gt;Claims and splits crvUSD fees according to DAO defined limits&lt;/span&gt;" style="text;html=1;strokeColor=none;fillColor=none;align=left;verticalAlign=top;whiteSpace=wrap;rounded=0;fontSize=15;fontStyle=1" parent="1" vertex="1">
          <mxGeometry x="520" y="-1450" width="210" height="70" as="geometry" />
        </mxCell>
        <mxCell id="qMNpVWF10UMDHr1Fh4Jr-16" value="Most fees still flow to veCRV holders" style="text;html=1;strokeColor=none;fillColor=none;align=left;verticalAlign=middle;whiteSpace=wrap;rounded=0;" parent="1" vertex="1">
          <mxGeometry x="610" y="-1540" width="110" height="30" as="geometry" />
        </mxCell>
        <mxCell id="qMNpVWF10UMDHr1Fh4Jr-18" value="" style="endArrow=classic;html=1;rounded=0;exitX=0.396;exitY=0.98;exitDx=0;exitDy=0;exitPerimeter=0;strokeColor=#82B366;fillColor=#ffe6cc;strokeWidth=3;" parent="1" edge="1">
          <mxGeometry width="50" height="50" relative="1" as="geometry">
            <mxPoint x="610.1600000000001" y="-1380" as="sourcePoint" />
            <mxPoint x="610" y="-1310" as="targetPoint" />
          </mxGeometry>
        </mxCell>
        <mxCell id="qMNpVWF10UMDHr1Fh4Jr-19" value="" style="rounded=1;whiteSpace=wrap;html=1;fontSize=23;fillColor=#dae8fc;strokeColor=#6c8ebf;fontStyle=0;align=center;" parent="1" vertex="1">
          <mxGeometry x="500" y="-1310" width="140" height="70" as="geometry" />
        </mxCell>
        <mxCell id="qMNpVWF10UMDHr1Fh4Jr-20" value="&lt;font style=&quot;font-size: 15px;&quot;&gt;&lt;b&gt;st-crvUSD&lt;br&gt;&lt;/b&gt;&lt;/font&gt;" style="rounded=1;whiteSpace=wrap;html=1;fillColor=#FFFFFF;strokeColor=#6c8ebf;opacity=50;" parent="1" vertex="1">
          <mxGeometry x="508.5" y="-1301.5" width="121.5" height="51.5" as="geometry" />
        </mxCell>
        <mxCell id="RqzFX81J3h3ud_MSR6zR-1" value="" style="endArrow=oval;html=1;rounded=0;strokeColor=#82B366;fillColor=#ffe6cc;strokeWidth=3;endFill=0;dashed=1;" parent="1" edge="1">
          <mxGeometry width="50" height="50" relative="1" as="geometry">
            <mxPoint x="690" y="-1380" as="sourcePoint" />
            <mxPoint x="690" y="-1340" as="targetPoint" />
          </mxGeometry>
        </mxCell>
        <mxCell id="RqzFX81J3h3ud_MSR6zR-2" value="More products can be added to the splitter if the DAO desires" style="text;html=1;strokeColor=none;fillColor=none;align=center;verticalAlign=middle;whiteSpace=wrap;rounded=0;" parent="1" vertex="1">
          <mxGeometry x="650" y="-1320" width="90" height="30" as="geometry" />
        </mxCell>
        <mxCell id="RqzFX81J3h3ud_MSR6zR-3" value="Small amount &lt;br&gt;of fees sent to &lt;br&gt;st-crvUSD" style="text;html=1;strokeColor=none;fillColor=none;align=right;verticalAlign=middle;whiteSpace=wrap;rounded=0;" parent="1" vertex="1">
          <mxGeometry x="490" y="-1360" width="110" height="30" as="geometry" />
        </mxCell>
      </root>
    </mxGraphModel>
  </diagram>
</mxfile>
